# xmcd CD database file
#
# Track frame offsets:
#	150
#	14842
#	28417
#	41111
#	51816
#	65704
#	81195
#	96816
#	112801
#	126690
#	143151
#	162760
#	178964
#	188243
#	200183
#	210334
#	221507
#	227646
#	232698
#	246207
#
# Disc length: 3435 seconds
#
# Revision: 1
# Processed by: cddbd v1.5.2PL0 Copyright (c) Steve Scherf et al.
# Submitted via: CDex 1.70beta2
#
DISCID=2b0d6914
DTITLE=Marilyn Monroe - The very best of Marilyn Monroe
DYEAR=2000
DGENRE=Evergreen
TTITLE0=Do it again
TTITLE1=Kiss
TTITLE2=She acts like a woman should
TTITLE3=A fine romance
TTITLE4=Two little girls from little rock
TTITLE5=When loves goes wrong, nothing goes right
TTITLE6=Bye bye bye
TTITLE7=Diamonds are a girl's best friend
TTITLE8=You'd be surprised
TTITLE9=After you get what you want, you don't want it
TTITLE10=Heat wave
TTITLE11=Lazy
TTITLE12=One silver dollar
TTITLE13=I'm gonna file my claim
TTITLE14=The river of no return
TTITLE15=Down in the meadow
TTITLE16=Some like it hot
TTITLE17=Runnin' Wild
TTITLE18=I wanna be loved by you
TTITLE19=I'm thru with love
EXTD=YEAR: 2000
EXTT0=
EXTT1=
EXTT2=
EXTT3=
EXTT4=
EXTT5=
EXTT6=
EXTT7=
EXTT8=
EXTT9=
EXTT10=
EXTT11=
EXTT12=
EXTT13=
EXTT14=
EXTT15=
EXTT16=
EXTT17=
EXTT18=
EXTT19=
PLAYORDER=
